<svg xmlns="http://www.w3.org/2000/svg" viewBox="0 0 512 512" class="logo">
  <g transform="translate(0,512) scale(0.1,-0.1)" fill="currentColor" stroke="none">
    <path d="M565 4791 c-90 -22 -172 -90 -215 -176 l-25 -50 0 -2005 0 -2005 23
    -45 c35 -72 75 -114 144 -151 l63 -34 632 0 c622 0 632 0 659 21 53 39 69 71
    69 134 0 63 -16 95 -69 134 -27 21 -39 21 -617 24 l-589 2 0 1920 0 1920 799
    0 800 0 3 -362 c3 -354 4 -364 26 -408 35 -72 75 -114 144 -151 l63 -34 362
    -3 362 -3 3 -429 c3 -415 4 -429 24 -456 39 -53 71 -69 134 -69 63 0 95 16
    134 69 20 27 21 40 24 539 2 282 0 528 -3 547 -5 30 -82 111 -513 544 -290
    290 -521 514 -539 522 -27 12 -185 14 -950 13 -505 -1 -931 -4 -948 -8z m2205
    -746 l205 -205 -208 0 -207 0 0 205 c0 113 1 205 3 205 1 0 94 -92 207 -205z"/>
    <path d="M1055 3186 c-67 -29 -105 -106 -91 -181 9 -47 59 -102 104 -115 25
    -8 184 -10 474 -8 423 3 437 4 464 24 53 39 69 71 69 134 0 63 -16 95 -69 134
    -27 20 -40 21 -474 23 -356 2 -453 0 -477 -11z"/>
    <path d="M4170 2862 c-36 -9 -87 -30 -115 -46 -60 -34 -1584 -1549 -1620
    -1611 -30 -51 -195 -670 -195 -732 0 -82 70 -153 151 -153 40 0 681 165 723
    187 41 20 1556 1533 1601 1598 70 101 102 262 76 388 -29 135 -131 271 -249
    331 -112 57 -247 71 -372 38z m237 -328 c43 -32 65 -69 70 -117 8 -68 -3 -110
    -42 -153 l-34 -39 -127 127 -128 127 23 25 c40 43 80 57 148 53 43 -2 71 -9
    90 -23z m-357 -409 l125 -125 -448 -448 -447 -447 -127 128 -128 127 445 445
    c245 245 447 445 450 445 3 0 61 -56 130 -125z m-1120 -1120 l125 -125 -50
    -49 c-50 -48 -51 -49 -215 -89 -90 -22 -166 -40 -167 -39 -1 1 17 77 39 167
    40 161 42 166 86 213 26 26 49 47 52 47 3 0 61 -56 130 -125z"/>
    <path d="M1055 2546 c-67 -29 -105 -106 -91 -181 9 -47 59 -102 104 -115 25
    -8 305 -10 874 -8 827 3 837 3 864 24 53 39 69 71 69 134 0 63 -16 95 -69 134
    -27 21 -36 21 -874 23 -689 2 -853 0 -877 -11z"/>
    <path d="M1055 1906 c-67 -29 -105 -106 -91 -181 9 -47 59 -102 104 -115 25
    -8 257 -10 714 -8 665 3 677 3 704 24 53 39 69 71 69 134 0 63 -16 95 -69 134
    -27 21 -38 21 -714 23 -556 2 -693 0 -717 -11z"/>
  </g>
</svg>
